<svg width="61" height="65" viewBox="0 0 61 65" fill="none" xmlns="http://www.w3.org/2000/svg">
<mask id="mask0_4_2" style="mask-type:alpha" maskUnits="userSpaceOnUse" x="0" y="0" width="61" height="65">
<ellipse cx="30.5" cy="32.0124" rx="30.5" ry="32.0124" fill="#D9D9D9"/>
</mask>
<g mask="url(#mask0_4_2)">
<rect x="-11.3867" y="-5.54881" width="80.9267" height="69.5736" fill="#DBE8FB"/>
<path d="M30.5 17.0733C27.4801 17.0733 24.5838 18.3324 22.4484 20.5737C20.313 22.815 19.1133 25.8549 19.1133 29.0246C19.1133 32.1942 20.313 35.2341 22.4484 37.4754C24.5838 39.7167 27.4801 40.9759 30.5 40.9759C33.5199 40.9759 36.4162 39.7167 38.5516 37.4754C40.687 35.2341 41.8866 32.1942 41.8866 29.0246C41.8866 25.8549 40.687 22.815 38.5516 20.5737C36.4162 18.3324 33.5199 17.0733 30.5 17.0733ZM30.5 46.9515C17.9177 46.9515 7.72665 52.2997 7.72665 58.9028V64.8784H53.2733V58.9028C53.2733 52.2997 43.0822 46.9515 30.5 46.9515Z" fill="#C5D4EB"/>
</g>
</svg>
